<svg width="18" height="19" viewBox="0 0 18 19" fill="none" xmlns="http://www.w3.org/2000/svg">
<path d="M9 10.5336C8.9025 10.5336 8.805 10.5111 8.715 10.4586L2.09251 6.62614C1.82251 6.46864 1.7325 6.12362 1.89 5.85362C2.0475 5.58362 2.385 5.4936 2.6625 5.6511L9 9.31862L15.3 5.67363C15.57 5.51613 15.915 5.61364 16.0725 5.87614C16.23 6.14614 16.1325 6.49112 15.87 6.64862L9.29252 10.4586C9.19502 10.5036 9.0975 10.5336 9 10.5336Z" fill="#0771DE"/>
<path d="M9 17.3286C8.6925 17.3286 8.4375 17.0736 8.4375 16.7661V9.96362C8.4375 9.65612 8.6925 9.40112 9 9.40112C9.3075 9.40112 9.5625 9.65612 9.5625 9.96362V16.7661C9.5625 17.0736 9.3075 17.3286 9 17.3286Z" fill="#0771DE"/>
<path d="M8.99997 17.6211C8.33997 17.6211 7.68747 17.4786 7.16997 17.1936L3.16497 14.9661C2.07747 14.3661 1.22998 12.9186 1.22998 11.6736V7.43608C1.22998 6.19108 2.07747 4.75111 3.16497 4.14361L7.16997 1.92359C8.19747 1.35359 9.80247 1.35359 10.83 1.92359L14.835 4.15107C15.9225 4.75107 16.77 6.19858 16.77 7.44358V11.6811C16.77 12.9261 15.9225 14.3661 14.835 14.9736L10.83 17.1936C10.3125 17.4786 9.65997 17.6211 8.99997 17.6211ZM8.99997 2.62109C8.52747 2.62109 8.06248 2.71859 7.71748 2.90609L3.71248 5.13357C2.99248 5.53857 2.35498 6.61108 2.35498 7.44358V11.6811C2.35498 12.5061 2.99248 13.5861 3.71248 13.9911L7.71748 16.2186C8.39998 16.6011 9.59996 16.6011 10.2825 16.2186L14.2875 13.9911C15.0075 13.5861 15.645 12.5136 15.645 11.6811V7.44358C15.645 6.61858 15.0075 5.53857 14.2875 5.13357L10.2825 2.90609C9.93746 2.71859 9.47247 2.62109 8.99997 2.62109Z" fill="#0771DE"/>
<path d="M12.7499 11.0511C12.4424 11.0511 12.1874 10.7961 12.1874 10.4886V8.07365L5.34739 4.12864C5.07739 3.97114 4.98738 3.62613 5.14488 3.36363C5.30238 3.09363 5.63989 3.00361 5.90989 3.16111L13.0274 7.27115C13.1999 7.36865 13.3124 7.55612 13.3124 7.75862V10.5036C13.3124 10.7961 13.0574 11.0511 12.7499 11.0511Z" fill="#0771DE"/>
</svg>
