<svg width="55" height="55" viewBox="0 0 55 55" fill="none" xmlns="http://www.w3.org/2000/svg">
<g clip-path="url(#clip0_85_2042)">
<g opacity="0.45">
<path d="M41.4683 21.9409L36.4985 23.5895C36.4985 23.5895 36.492 23.5895 36.4855 23.5895C36.2801 23.6859 35.875 23.6883 35.7755 24.0814C35.7565 24.1463 34.0887 29.8435 34.1081 29.7754C33.9843 30.2118 33.4372 30.3088 33.1832 29.9278L29.946 25.065C29.8483 24.9126 29.6855 24.8295 29.5096 24.8295C29.4437 24.8304 23.5384 24.9107 23.9081 24.9057C23.4716 24.9126 23.2176 24.3931 23.4782 24.019L25.582 21.0265L26.4678 19.7658L26.8326 19.2393C26.9303 19.0938 26.9629 18.8999 26.9042 18.7267L26.6893 18.0548C26.6893 18.0548 26.6893 18.0548 26.6893 18.0478L26.4744 17.369C26.4613 17.3344 26.4548 17.2997 26.4418 17.272C26.0249 15.9767 25.6146 14.6813 25.1977 13.3929C25.1652 13.2889 25.1326 13.185 25.1 13.0811C24.9655 12.6521 25.3489 12.2273 25.7644 12.3746C25.8299 12.3981 31.1397 14.3106 31.0728 14.2864C31.2422 14.3488 31.418 14.3211 31.5548 14.2102C31.6203 14.1583 36.338 10.4134 36.0491 10.6428C36.3943 10.3657 36.8893 10.6289 36.8828 11.0931L36.8698 12.4161L36.8372 15.5333L36.8177 17.0573C36.8112 17.2374 36.8959 17.4106 37.0391 17.5144L41.6181 20.9572C41.9621 21.2147 41.8857 21.8022 41.4683 21.9409Z" fill="#FBDC2A"/>
<path d="M29.5821 13.7535C26.5801 13.2651 25.9038 12.5371 25.1205 12.7283L25.1074 12.7213C25.179 12.468 25.463 12.2678 25.7653 12.375C30.9915 14.2633 29.1918 13.6152 29.5821 13.7535Z" fill="#FFED94"/>
<path d="M27.6207 18.7053C27.7025 18.8591 27.6698 19.0481 27.539 19.157C27.0773 19.5414 26.0994 20.4729 25.9988 20.5745C25.8556 20.7199 25.7188 20.8724 25.582 21.0247L26.4678 19.764L26.8288 19.243C26.9322 19.0938 26.9603 18.9003 26.9042 18.7249L26.6892 18.053C26.6892 18.053 26.6892 18.053 26.6892 18.0461C26.6567 17.8244 26.546 17.5751 26.4743 17.3672C26.4613 17.3326 26.4548 17.298 26.4417 17.2703C26.0249 15.9749 25.6146 14.6795 25.1977 13.3911C25.1651 13.2872 25.1326 13.1833 25.1 13.0794C25.0349 12.8716 25.087 12.6707 25.2107 12.5321C25.7814 14.6763 26.5885 16.764 27.6207 18.7053Z" fill="#FDA929"/>
<path d="M33.9252 29.7952C34.0229 29.7952 34.088 29.7398 34.1401 29.6636L34.1075 29.7744C33.9838 30.2108 33.4367 30.3078 33.1826 29.9268L29.9454 25.064C29.8478 24.9116 29.6849 24.8285 29.509 24.8285L26.4673 24.87C27.2945 24.6692 28.1282 24.4614 28.9554 24.2605C30.1397 23.9652 30.6608 24.0708 31.45 25.5489C32.1405 26.8512 32.8309 28.1466 33.5213 29.4419C33.6125 29.6151 33.7428 29.8022 33.9252 29.7952Z" fill="#FDA929"/>
<path d="M36.4854 23.5875C36.28 23.6839 35.875 23.6863 35.7754 24.0794L34.2383 29.3162C34.2902 29.0131 34.127 27.7183 34.577 25.6657C34.849 24.4692 35.2579 23.7181 36.4854 23.5875Z" fill="#FDA929"/>
<path d="M41.826 21.498C41.4875 21.1082 41.2435 21.0223 38.1003 19.0667C36.4454 18.0609 36.3455 17.4146 36.8366 15.5338L36.8171 17.0578C36.8106 17.2379 36.8953 17.4111 37.0386 17.515L41.6175 20.9577C41.7934 21.0894 41.8585 21.3041 41.826 21.498Z" fill="#FDA929"/>
<path d="M32.8309 13.1923C32.5677 13.7246 32.3413 14.2744 32.1518 14.8381C32.0727 15.0731 31.8246 15.185 31.6149 15.0729C30.4895 14.4714 29.3636 13.8692 28.2324 13.2616L31.0723 14.2868C31.2417 14.3491 31.4175 14.3214 31.5543 14.2106L32.8309 13.1923Z" fill="#FDA929"/>
<path d="M37.4031 27.8086C37.3117 28.6501 36.4198 39.5469 35.1062 44.9966C28.0794 44.9001 25.246 44.7475 18.2645 43.743C18.2645 43.6781 17.7931 36.4449 17.7281 35.6512C17.5139 33.0891 17.2193 29.5544 17.0254 26.9568C24.5055 27.1978 30.0212 27.2059 37.4031 27.8086Z" fill="#0771DE"/>
<path d="M37.3878 27.8152C37.3802 27.8152 32.5673 35.9595 32.5673 35.9595C32.5673 35.9595 20.0475 35.6722 17.7279 35.6445C17.607 34.1991 17.4862 32.7537 17.3652 31.262C21.2564 31.6696 27.6259 32.3182 27.6259 32.2904C27.6259 32.2533 37.3198 27.9264 37.3878 27.8152Z" fill="#095AAD"/>
<path d="M48.8278 27.307C46.2599 38.6076 47.1456 34.71 46.954 35.5532L45.6468 42.6783C45.6468 42.6783 35.4089 44.9299 35.1067 44.9947V44.7538C35.6015 41.1032 33.875 53.841 37.4036 27.8073L38.7107 27.7517L48.8278 27.307Z" fill="#095AAD"/>
<path d="M48.2082 30.0225L46.9539 35.5539C44.3548 35.7948 39.8894 36.2025 39.9347 36.1191C39.9951 35.9987 37.3507 28.086 37.4489 28.0119L37.396 27.8451L37.4036 27.808L38.7107 27.7524L38.8996 27.9655C40.3367 28.2722 47.206 29.7652 48.2082 30.0225Z" fill="#0771DE"/>
<path d="M53.6938 33.1429L40.8945 34.8384L37.3887 27.8153C53.1998 27.1216 47.7465 27.3609 48.9262 27.3091L53.6938 33.1429Z" fill="#0771DE"/>
<path d="M37.3877 27.8166L32.2499 34.3816C28.177 34.2416 42.3322 34.7283 13.5571 33.7388L17.0252 26.9568C27.8996 27.161 33.6029 27.6045 37.3877 27.8166Z" fill="#0771DE"/>
<path d="M36.9646 27.7877L17.4558 27.5868L13.5949 33.734H13.5571L17.0252 26.952C23.8707 27.0806 30.5272 27.3458 36.9646 27.7877Z" fill="#92C6FB"/>
<path d="M53.6927 33.1398L48.638 28.3105L39.3521 27.7238L48.9251 27.306L53.6927 33.1398Z" fill="#92C6FB"/>
<g opacity="0.5">
<path d="M37.2687 29.2761C36.9513 32.635 36.1731 40.5741 35.1078 44.9936C28.0809 44.8972 25.2476 44.7445 18.2661 43.7401C18.2661 43.7321 18.2661 43.7321 18.2661 43.724L18.2737 43.716C23.6836 43.3303 29.0934 42.8401 34.4882 42.2535C35.2135 37.8902 36.0295 33.5028 37.2687 29.2761Z" fill="#095AAD"/>
</g>
<path d="M36.8834 11.0904L36.8704 12.4134C36.8118 12.1848 36.7401 11.9563 36.6684 11.7277C36.4703 11.0955 36.1788 11.4448 35.6067 11.7C34.978 11.9697 34.3473 12.3266 33.1772 12.9122L36.0497 10.6401C36.3949 10.363 36.8899 10.6262 36.8834 11.0904Z" fill="#FFED94"/>
<path d="M31.0897 16.1424C31.0937 16.8557 30.943 17.5722 30.6764 18.2558C30.4935 18.7247 30.2313 19.6251 29.5028 19.579C29.1963 19.5596 28.9315 19.3698 28.8068 19.1261C28.6723 18.8633 28.7231 18.5627 28.7053 18.2803C28.6871 17.9902 28.72 17.6946 28.766 17.404C28.8578 16.8231 29.0494 16.244 29.4223 15.7417C29.6879 15.384 30.1684 15.044 30.6026 15.1947C30.9909 15.3296 31.0876 15.7684 31.0897 16.1424Z" fill="#FFED94"/>
<path d="M29.7051 20.7776C29.7117 21.2118 29.6319 21.6468 29.4872 22.0611C29.3879 22.3452 29.2469 22.8915 28.8401 22.8585C28.6689 22.8446 28.52 22.7273 28.449 22.5781C28.3723 22.4172 28.3989 22.2346 28.3873 22.0626C28.3753 21.886 28.3919 21.7063 28.4158 21.5297C28.4636 21.1768 28.5671 20.8256 28.7722 20.5225C28.9183 20.3065 29.1844 20.1029 29.4276 20.1975C29.6451 20.2822 29.7017 20.55 29.7051 20.7776Z" fill="#FFED94"/>
<path d="M54.0745 32.3127L49.8535 27.0976C49.741 26.9584 49.7632 26.7544 49.9032 26.6421C50.0431 26.5308 50.2479 26.5517 50.3611 26.6915L54.5821 31.9066C54.6947 32.0457 54.6725 32.2498 54.5325 32.362C54.3897 32.4757 54.1856 32.4499 54.0745 32.3127Z" fill="#0771DE"/>
<path d="M46.7188 42.383C46.5445 42.3403 46.437 42.1651 46.4803 41.9911L48.2295 34.8941C48.2721 34.7207 48.4464 34.6145 48.6232 34.6565C48.7981 34.6992 48.905 34.8748 48.8617 35.0484L47.1125 42.1455C47.0695 42.3209 46.8916 42.4249 46.7188 42.383Z" fill="#0771DE"/>
<path d="M22.4094 23.8344C22.3432 23.8344 22.2765 23.8144 22.2192 23.7733C22.0729 23.6689 22.0398 23.4665 22.1448 23.3213L25.5885 18.5627C25.6947 18.4165 25.8983 18.3849 26.0433 18.489C26.1896 18.5933 26.2227 18.7958 26.1177 18.9409L22.674 23.6996C22.6098 23.7876 22.5105 23.8344 22.4094 23.8344Z" fill="#FBDC2A"/>
<path d="M25.7533 18.6841C25.6191 18.6841 25.4938 18.6015 25.4468 18.4687C24.8183 16.7123 24.2528 14.9094 23.7643 13.1106C23.7173 12.9379 23.8203 12.7602 23.994 12.7134C24.167 12.6669 24.3463 12.769 24.3928 12.9417C24.8768 14.7244 25.4378 16.5111 26.0599 18.2517C26.1204 18.4203 26.0319 18.6053 25.8627 18.6654C25.8265 18.6781 25.7896 18.6841 25.7533 18.6841Z" fill="#FBDC2A"/>
</g>
</g>
<defs>
<clipPath id="clip0_85_2042">
<rect width="53.6888" height="53.6888" fill="white" transform="translate(0.964844 0.583984)"/>
</clipPath>
</defs>
</svg>
