<svg width="121" height="83" viewBox="0 0 121 83" fill="none" xmlns="http://www.w3.org/2000/svg">
<rect x="0.298561" y="0.298561" width="120.403" height="82.4029" rx="5.67266" fill="#E8F3FF" stroke="#0771DE" stroke-width="0.597122" stroke-dasharray="5 5"/>
<path d="M71.2499 34C71.2546 35.7861 70.6752 37.5248 69.5999 38.9509C69.5407 39.0297 69.4665 39.0961 69.3817 39.1462C69.2968 39.1964 69.2029 39.2293 69.1053 39.2431C69.0077 39.257 68.9084 39.2514 68.8129 39.2269C68.7175 39.2023 68.6278 39.1592 68.549 39.1C68.4702 39.0408 68.4038 38.9666 68.3537 38.8818C68.3036 38.7969 68.2706 38.703 68.2568 38.6054C68.2429 38.5078 68.2485 38.4085 68.273 38.313C68.2976 38.2175 68.3407 38.1279 68.3999 38.0491C69.2801 36.883 69.7542 35.4609 69.7499 34C69.7499 32.2098 69.0388 30.4929 67.7729 29.227C66.507 27.9612 64.7901 27.25 62.9999 27.25C61.2097 27.25 59.4928 27.9612 58.2269 29.227C56.9611 30.4929 56.2499 32.2098 56.2499 34C56.2499 34.1989 56.1709 34.3897 56.0302 34.5303C55.8896 34.671 55.6988 34.75 55.4999 34.75C55.301 34.75 55.1102 34.671 54.9696 34.5303C54.8289 34.3897 54.7499 34.1989 54.7499 34C54.7495 33.2431 54.8533 32.4898 55.0584 31.7612C54.9562 31.75 54.853 31.75 54.7499 31.75C53.5564 31.75 52.4118 32.2241 51.5679 33.068C50.724 33.9119 50.2499 35.0565 50.2499 36.25C50.2499 37.4435 50.724 38.5881 51.5679 39.432C52.4118 40.2759 53.5564 40.75 54.7499 40.75H56.9999C57.1988 40.75 57.3896 40.829 57.5302 40.9697C57.6709 41.1103 57.7499 41.3011 57.7499 41.5C57.7499 41.6989 57.6709 41.8897 57.5302 42.0303C57.3896 42.171 57.1988 42.25 56.9999 42.25H54.7499C53.9251 42.2502 53.1091 42.0803 52.3528 41.751C51.5966 41.4216 50.9164 40.9399 50.3547 40.3359C49.793 39.7318 49.3619 39.0185 49.0883 38.2403C48.8147 37.4622 48.7044 36.636 48.7644 35.8134C48.8245 34.9907 49.0535 34.1893 49.4371 33.4591C49.8208 32.7289 50.3509 32.0857 50.9943 31.5696C51.6378 31.0535 52.3807 30.6756 53.1767 30.4595C53.9727 30.2435 54.8048 30.1938 55.6209 30.3137C56.4518 28.6517 57.8196 27.3189 59.5026 26.5312C61.1856 25.7434 63.0852 25.5469 64.8938 25.9735C66.7024 26.4001 68.314 27.4247 69.4676 28.8815C70.6212 30.3382 71.2492 32.1418 71.2499 34ZM62.7805 33.4694C62.7109 33.3996 62.6282 33.3443 62.5371 33.3066C62.4461 33.2688 62.3485 33.2494 62.2499 33.2494C62.1514 33.2494 62.0538 33.2688 61.9627 33.3066C61.8717 33.3443 61.7889 33.3996 61.7193 33.4694L58.7193 36.4694C58.6496 36.5391 58.5943 36.6218 58.5566 36.7128C58.5189 36.8039 58.4995 36.9015 58.4995 37C58.4995 37.0985 58.5189 37.1961 58.5566 37.2872C58.5943 37.3782 58.6496 37.4609 58.7193 37.5306C58.86 37.6714 59.0509 37.7504 59.2499 37.7504C59.3485 37.7504 59.446 37.731 59.5371 37.6933C59.6281 37.6556 59.7109 37.6003 59.7805 37.5306L61.4999 35.8103V41.5C61.4999 41.6989 61.5789 41.8897 61.7196 42.0303C61.8602 42.171 62.051 42.25 62.2499 42.25C62.4488 42.25 62.6396 42.171 62.7802 42.0303C62.9209 41.8897 62.9999 41.6989 62.9999 41.5V35.8103L64.7193 37.5306C64.789 37.6003 64.8717 37.6556 64.9627 37.6933C65.0538 37.731 65.1514 37.7504 65.2499 37.7504C65.3485 37.7504 65.446 37.731 65.5371 37.6933C65.6281 37.6556 65.7109 37.6003 65.7805 37.5306C65.8502 37.4609 65.9055 37.3782 65.9432 37.2872C65.9809 37.1961 66.0003 37.0985 66.0003 37C66.0003 36.9015 65.9809 36.8039 65.9432 36.7128C65.9055 36.6218 65.8502 36.5391 65.7805 36.4694L62.7805 33.4694Z" fill="#0771DE"/>
<path d="M32.752 58.312C32.6453 58.1947 32.5547 58.04 32.48 57.848C32.4107 57.6507 32.376 57.416 32.376 57.144V56.976C32.376 56.448 32.5413 56.0347 32.872 55.736C33.2027 55.432 33.656 55.28 34.232 55.28C34.4507 55.28 34.6667 55.2907 34.88 55.312C35.0933 55.328 35.2747 55.3573 35.424 55.4C35.472 55.4107 35.504 55.4267 35.52 55.448C35.536 55.4693 35.544 55.5013 35.544 55.544V58.312H36.232V59H31.04C30.528 59 30.104 58.9547 29.768 58.864C29.432 58.768 29.1653 58.6293 28.968 58.448C28.776 58.2667 28.64 58.0453 28.56 57.784C28.48 57.5173 28.44 57.2133 28.44 56.872C28.44 56.76 28.4427 56.6453 28.448 56.528C28.4587 56.4053 28.48 56.2693 28.512 56.12C28.528 56.0133 28.5787 55.96 28.664 55.96H29C29.096 55.96 29.136 56.0133 29.12 56.12C29.1093 56.2427 29.1013 56.3467 29.096 56.432C29.096 56.5173 29.096 56.6053 29.096 56.696C29.096 56.952 29.12 57.1813 29.168 57.384C29.216 57.5813 29.312 57.7493 29.456 57.888C29.6 58.0267 29.8 58.1333 30.056 58.208C30.3173 58.2773 30.6587 58.312 31.08 58.312H32.752ZM34.872 58.328V55.952C34.7653 55.936 34.656 55.9253 34.544 55.92C34.4373 55.9147 34.3147 55.912 34.176 55.912C33.808 55.912 33.528 56.0027 33.336 56.184C33.144 56.36 33.048 56.6293 33.048 56.992V57.16C33.048 57.5387 33.1307 57.8293 33.296 58.032C33.4667 58.2293 33.7333 58.328 34.096 58.328H34.872ZM33.736 53.8C33.736 53.7467 33.7547 53.704 33.792 53.672C33.8293 53.64 33.872 53.624 33.92 53.624H34.272C34.32 53.624 34.36 53.64 34.392 53.672C34.4293 53.704 34.448 53.7467 34.448 53.8V54.232C34.448 54.28 34.4293 54.32 34.392 54.352C34.36 54.384 34.3173 54.4 34.264 54.4H33.92C33.8667 54.4 33.8213 54.384 33.784 54.352C33.752 54.32 33.736 54.28 33.736 54.232V53.8ZM35.9144 58.416C35.9144 58.384 35.941 58.36 35.9944 58.344C36.0477 58.3227 36.1117 58.312 36.1864 58.312H36.6104C36.6637 58.312 36.7224 58.3093 36.7864 58.304C36.8504 58.2987 36.9117 58.288 36.9704 58.272C37.029 58.2507 37.077 58.2213 37.1144 58.184C37.157 58.1413 37.1784 58.0853 37.1784 58.016V53.144C37.1784 53.1013 37.1917 53.0667 37.2184 53.04C37.2504 53.008 37.2877 52.992 37.3304 52.992H37.7224C37.765 52.992 37.7997 53.008 37.8264 53.04C37.853 53.0667 37.8664 53.1013 37.8664 53.144V58.12C37.8824 58.1627 37.9144 58.1973 37.9624 58.224C38.0157 58.2453 38.0717 58.264 38.1304 58.28C38.1944 58.2907 38.2584 58.2987 38.3224 58.304C38.3864 58.3093 38.4424 58.312 38.4904 58.312H38.6024V59H38.5064C38.4264 59 38.341 58.9973 38.2504 58.992C38.1597 58.9813 38.069 58.968 37.9784 58.952C37.893 58.9307 37.8077 58.904 37.7224 58.872C37.6424 58.8347 37.573 58.7893 37.5144 58.736C37.381 58.8427 37.221 58.9147 37.0344 58.952C36.853 58.984 36.6877 59 36.5384 59H36.1864C36.1117 59 36.0477 58.992 35.9944 58.976C35.941 58.9547 35.9144 58.9253 35.9144 58.888V58.416ZM38.2816 58.416C38.2816 58.384 38.3082 58.36 38.3616 58.344C38.4149 58.3227 38.4789 58.312 38.5536 58.312H38.8096C38.8469 58.312 38.8949 58.3093 38.9536 58.304C39.0122 58.2987 39.0709 58.2853 39.1296 58.264C39.1882 58.2427 39.2389 58.216 39.2816 58.184C39.3296 58.1467 39.3616 58.096 39.3776 58.032C39.3936 57.968 39.4016 57.8907 39.4016 57.8V57.032C39.4016 56.4827 39.5429 56.0613 39.8256 55.768C40.1136 55.4747 40.5242 55.328 41.0576 55.328C41.5909 55.328 41.9936 55.472 42.2656 55.76C42.5376 56.048 42.6736 56.4693 42.6736 57.024V57.432C42.6736 57.9867 42.5456 58.408 42.2896 58.696C42.0336 58.9787 41.6176 59.12 41.0416 59.12C40.7429 59.12 40.4789 59.08 40.2496 59C40.0256 58.9147 39.8469 58.7867 39.7136 58.616C39.6229 58.76 39.4842 58.8613 39.2976 58.92C39.1109 58.9733 38.9056 59 38.6816 59H38.5536C38.4789 59 38.4149 58.992 38.3616 58.976C38.3082 58.9547 38.2816 58.9253 38.2816 58.888V58.416ZM40.0736 57.448C40.0736 57.6187 40.0842 57.7653 40.1056 57.888C40.1589 58.1227 40.2656 58.2827 40.4256 58.368C40.5856 58.448 40.7909 58.488 41.0416 58.488C41.3936 58.488 41.6416 58.4053 41.7856 58.24C41.9296 58.0693 42.0016 57.7867 42.0016 57.392V57.096C42.0016 56.7333 41.9296 56.4533 41.7856 56.256C41.6469 56.0587 41.4042 55.96 41.0576 55.96C40.7056 55.96 40.4522 56.0587 40.2976 56.256C40.1482 56.448 40.0736 56.728 40.0736 57.096V57.448ZM47.6679 60.44C47.7799 60.44 47.8359 60.4853 47.8359 60.576V60.896C47.8359 60.992 47.7825 61.0427 47.6759 61.048C47.6279 61.0533 47.5852 61.056 47.5479 61.056C47.5159 61.056 47.4919 61.056 47.4759 61.056C46.8092 61.056 46.3345 60.9013 46.0519 60.592C45.7745 60.2827 45.6359 59.832 45.6359 59.24C45.6359 59.192 45.6359 59.1333 45.6359 59.064C45.6412 59 45.6439 58.9333 45.6439 58.864C45.6492 58.7947 45.6545 58.728 45.6599 58.664C45.6652 58.6 45.6705 58.544 45.6759 58.496C45.6865 58.448 45.7025 58.408 45.7239 58.376C45.7505 58.344 45.7932 58.328 45.8519 58.328C45.9159 58.3227 46.0065 58.32 46.1239 58.32C46.2465 58.32 46.3665 58.32 46.4839 58.32H46.7239L45.9719 56.392C45.9612 56.376 45.9532 56.3547 45.9479 56.328C45.9479 56.3013 45.9479 56.2773 45.9479 56.256L45.9559 56.024C45.9612 55.9813 45.9745 55.9467 45.9959 55.92C46.0172 55.8933 46.0492 55.8587 46.0919 55.816C46.2785 55.656 46.5265 55.528 46.8359 55.432C47.1452 55.3307 47.4599 55.28 47.7799 55.28C48.0412 55.28 48.2812 55.3093 48.4999 55.368C48.7185 55.4267 48.9079 55.52 49.0679 55.648C49.2279 55.7707 49.3505 55.9307 49.4359 56.128C49.5265 56.3253 49.5719 56.56 49.5719 56.832V56.984C49.5719 57.1227 49.5559 57.2613 49.5239 57.4C49.4972 57.5333 49.4599 57.6587 49.4119 57.776C49.3639 57.8933 49.3052 58 49.2359 58.096C49.1719 58.1867 49.1025 58.2587 49.0279 58.312H50.1239V59H46.9559C46.8705 59 46.7612 59 46.6279 59C46.4999 59 46.3905 59.0027 46.2999 59.008C46.2999 59.0453 46.2972 59.096 46.2919 59.16C46.2919 59.2293 46.2919 59.2773 46.2919 59.304C46.2972 59.496 46.3212 59.6613 46.3639 59.8C46.4065 59.944 46.4759 60.0613 46.5719 60.152C46.6732 60.248 46.8039 60.32 46.9639 60.368C47.1292 60.416 47.3345 60.44 47.5799 60.44H47.6679ZM48.0199 58.32C48.3079 58.256 48.5265 58.1013 48.6759 57.856C48.8305 57.6053 48.9079 57.3173 48.9079 56.992V56.912C48.9079 56.56 48.8065 56.3067 48.6039 56.152C48.4065 55.992 48.1319 55.912 47.7799 55.912C47.7105 55.912 47.6279 55.9147 47.5319 55.92C47.4412 55.9253 47.3425 55.9387 47.2359 55.96C47.1345 55.976 47.0305 56.0053 46.9239 56.048C46.8172 56.0907 46.7132 56.1467 46.6119 56.216L47.4279 58.32H48.0199ZM51.373 57.192C51.373 57.56 51.4557 57.8427 51.621 58.04C51.7917 58.232 52.0557 58.328 52.413 58.328C52.5357 58.328 52.669 58.328 52.813 58.328C52.957 58.3227 53.085 58.3147 53.197 58.304V55.952C53.0903 55.936 52.981 55.9253 52.869 55.92C52.757 55.9147 52.6317 55.912 52.493 55.912C52.125 55.912 51.845 56.0053 51.653 56.192C51.4663 56.3787 51.373 56.6533 51.373 57.016V57.192ZM49.805 58.416C49.805 58.384 49.8317 58.36 49.885 58.344C49.9383 58.3227 50.0023 58.312 50.077 58.312H51.053C50.9517 58.2 50.8663 58.0533 50.797 57.872C50.733 57.6907 50.701 57.464 50.701 57.192V57C50.701 56.4613 50.8637 56.04 51.189 55.736C51.5197 55.432 51.973 55.28 52.549 55.28C52.773 55.28 52.9917 55.2907 53.205 55.312C53.4183 55.328 53.597 55.3573 53.741 55.4C53.7943 55.4107 53.829 55.4267 53.845 55.448C53.861 55.4693 53.869 55.5013 53.869 55.544V57.64C53.869 57.7307 53.869 57.8293 53.869 57.936C53.869 58.0373 53.8663 58.1413 53.861 58.248C53.861 58.3493 53.8583 58.448 53.853 58.544C53.8477 58.64 53.8423 58.728 53.837 58.808C53.8317 58.8987 53.773 58.9493 53.661 58.96C53.437 58.9813 53.221 58.9947 53.013 59C52.8103 59 52.6023 59 52.389 59H50.077C50.0023 59 49.9383 58.992 49.885 58.976C49.8317 58.9547 49.805 58.9253 49.805 58.888V58.416ZM52.061 53.8C52.061 53.7467 52.0797 53.704 52.117 53.672C52.1543 53.64 52.197 53.624 52.245 53.624H52.597C52.645 53.624 52.685 53.64 52.717 53.672C52.7543 53.704 52.773 53.7467 52.773 53.8V54.232C52.773 54.28 52.7543 54.32 52.717 54.352C52.685 54.384 52.6423 54.4 52.589 54.4H52.245C52.1917 54.4 52.1463 54.384 52.109 54.352C52.077 54.32 52.061 54.28 52.061 54.232V53.8ZM54.2198 60.36C54.2198 60.2853 54.2651 60.248 54.3558 60.248H54.5238C54.6998 60.248 54.8438 60.24 54.9558 60.224C55.0678 60.208 55.1585 60.1733 55.2278 60.12C55.2971 60.0667 55.3451 59.9867 55.3718 59.88C55.3985 59.7787 55.4118 59.64 55.4118 59.464V55.92C55.4118 55.8773 55.4251 55.8427 55.4518 55.816C55.4785 55.784 55.5131 55.768 55.5558 55.768H55.9478C55.9851 55.768 56.0171 55.784 56.0438 55.816C56.0705 55.8427 56.0838 55.8773 56.0838 55.92V58.312H56.8198V59H56.0758V59.512C56.0758 59.6827 56.0651 59.84 56.0438 59.984C56.0225 60.128 55.9825 60.2533 55.9238 60.36C55.8171 60.5467 55.6678 60.6773 55.4758 60.752C55.2891 60.8267 55.0411 60.864 54.7318 60.864C54.7051 60.864 54.6465 60.8613 54.5558 60.856C54.4705 60.8507 54.4011 60.8427 54.3478 60.832C54.2945 60.8213 54.2598 60.8053 54.2438 60.784C54.2278 60.768 54.2198 60.7413 54.2198 60.704V60.36ZM56.5003 58.416C56.5003 58.384 56.527 58.36 56.5803 58.344C56.6336 58.3227 56.6976 58.312 56.7723 58.312H57.4123C57.567 58.312 57.663 58.2987 57.7003 58.272C57.743 58.2453 57.7643 58.1627 57.7643 58.024V53.144C57.7643 53.1013 57.7776 53.0667 57.8043 53.04C57.8363 53.008 57.8736 52.992 57.9163 52.992H58.3083C58.351 52.992 58.3856 53.008 58.4123 53.04C58.439 53.0667 58.4523 53.1013 58.4523 53.144V57.76C58.4523 57.824 58.4523 57.896 58.4523 57.976C58.4523 58.056 58.4496 58.1387 58.4443 58.224C58.4443 58.3093 58.4416 58.392 58.4363 58.472C58.431 58.552 58.423 58.624 58.4123 58.688C58.4016 58.7413 58.3856 58.7867 58.3643 58.824C58.343 58.8613 58.3003 58.8933 58.2363 58.92C58.1936 58.936 58.1323 58.9493 58.0523 58.96C57.9723 58.9653 57.8843 58.9733 57.7883 58.984C57.6923 58.9893 57.591 58.9947 57.4843 59C57.383 59 57.287 59 57.1963 59H56.7723C56.6976 59 56.6336 58.992 56.5803 58.976C56.527 58.9547 56.5003 58.9253 56.5003 58.888V58.416ZM61.7903 53.144C61.7903 53.1013 61.8036 53.064 61.8303 53.032C61.8623 53 61.8996 52.984 61.9423 52.984H62.3343C62.377 52.984 62.4116 53 62.4383 53.032C62.465 53.064 62.4783 53.1013 62.4783 53.144V57.84C62.4783 57.9467 62.489 58.032 62.5103 58.096C62.537 58.1547 62.5716 58.2 62.6143 58.232C62.6623 58.264 62.7183 58.2853 62.7823 58.296C62.8516 58.3067 62.929 58.312 63.0143 58.312H63.2143V59H62.8383C62.6676 59 62.5183 58.9867 62.3903 58.96C62.2623 58.928 62.153 58.8747 62.0623 58.8C61.9716 58.72 61.9023 58.616 61.8543 58.488C61.8116 58.36 61.7903 58.1947 61.7903 57.992V53.144ZM62.8909 58.416C62.8909 58.384 62.9176 58.36 62.9709 58.344C63.0243 58.3227 63.0883 58.312 63.1629 58.312H63.5229C63.5763 58.312 63.6349 58.3093 63.6989 58.304C63.7629 58.2987 63.8243 58.288 63.8829 58.272C63.9416 58.2507 63.9896 58.2213 64.0269 58.184C64.0696 58.1413 64.0909 58.0853 64.0909 58.016V55.92C64.0909 55.8773 64.1043 55.8427 64.1309 55.816C64.1629 55.784 64.2003 55.768 64.2429 55.768H64.6109C64.6536 55.768 64.6883 55.784 64.7149 55.816C64.7469 55.8427 64.7629 55.8773 64.7629 55.92V58.12C64.7789 58.1627 64.8109 58.1973 64.8589 58.224C64.9123 58.2453 64.9683 58.264 65.0269 58.28C65.0909 58.2907 65.1549 58.2987 65.2189 58.304C65.2829 58.3093 65.3389 58.312 65.3869 58.312H65.4989V59H65.4029C65.2376 59 65.0589 58.984 64.8669 58.952C64.6803 58.9147 64.5256 58.8427 64.4029 58.736C64.2696 58.8427 64.1096 58.9147 63.9229 58.952C63.7416 58.984 63.5763 59 63.4269 59H63.1629C63.0883 59 63.0243 58.992 62.9709 58.976C62.9176 58.9547 62.8909 58.9253 62.8909 58.888V58.416ZM64.0749 54.128C64.0749 54.0747 64.0936 54.032 64.1309 54C64.1683 53.968 64.2109 53.952 64.2589 53.952H64.6109C64.6589 53.952 64.6989 53.968 64.7309 54C64.7683 54.032 64.7869 54.0747 64.7869 54.128V54.56C64.7869 54.608 64.7683 54.648 64.7309 54.68C64.6989 54.712 64.6563 54.728 64.6029 54.728H64.2589C64.2056 54.728 64.1603 54.712 64.1229 54.68C64.0909 54.648 64.0749 54.608 64.0749 54.56V54.128ZM65.18 58.44C65.18 58.3973 65.2067 58.3653 65.26 58.344C65.3133 58.3227 65.3773 58.312 65.452 58.312H66.404C66.3133 58.216 66.2493 58.096 66.212 57.952C66.1747 57.808 66.156 57.6453 66.156 57.464V57.208C66.156 56.7813 66.276 56.448 66.516 56.208C66.756 55.968 67.1027 55.848 67.556 55.848C68.0093 55.848 68.348 55.9653 68.572 56.2C68.796 56.4293 68.908 56.7653 68.908 57.208V57.464C68.908 57.64 68.884 57.8027 68.836 57.952C68.7933 58.1013 68.724 58.224 68.628 58.32H69.708C69.7507 58.32 69.7853 58.3147 69.812 58.304C69.844 58.288 69.868 58.256 69.884 58.208C69.9 58.16 69.9107 58.0933 69.916 58.008C69.9267 57.9173 69.932 57.8 69.932 57.656V57.256C69.932 56.9467 69.8867 56.6907 69.796 56.488C69.7107 56.28 69.588 56.1147 69.428 55.992C69.268 55.864 69.076 55.7733 68.852 55.72C68.6333 55.6667 68.3933 55.64 68.132 55.64C68.052 55.64 67.9453 55.64 67.812 55.64C67.684 55.64 67.5773 55.6427 67.492 55.648C67.3853 55.6587 67.332 55.624 67.332 55.544V55.208C67.332 55.1227 67.3827 55.0693 67.484 55.048C67.612 55.0267 67.7347 55.016 67.852 55.016C67.9747 55.0107 68.0653 55.008 68.124 55.008C68.4493 55.008 68.7613 55.04 69.06 55.104C69.3587 55.168 69.6227 55.2827 69.852 55.448C70.0813 55.6133 70.2627 55.8347 70.396 56.112C70.5347 56.3893 70.604 56.7387 70.604 57.16V57.56C70.604 57.7307 70.5987 57.9227 70.588 58.136C70.5773 58.3493 70.5507 58.544 70.508 58.72C70.4973 58.7733 70.4707 58.8267 70.428 58.88C70.3853 58.928 70.3187 58.9573 70.228 58.968C70.1533 58.9787 70.0467 58.9867 69.908 58.992C69.7693 58.992 69.6227 58.9947 69.468 59C69.3133 59 69.1587 59 69.004 59C68.8493 59 68.716 59 68.604 59H65.452C65.3773 59 65.3133 58.9893 65.26 58.968C65.2067 58.9413 65.18 58.9067 65.18 58.864V58.44ZM66.78 57.504C66.78 57.7547 66.8307 57.96 66.932 58.12C67.0387 58.28 67.2333 58.36 67.516 58.36C67.804 58.36 68.004 58.2827 68.116 58.128C68.228 57.968 68.284 57.76 68.284 57.504V57.232C68.284 56.9707 68.2333 56.7653 68.132 56.616C68.0307 56.4613 67.836 56.384 67.548 56.384C67.26 56.384 67.06 56.4613 66.948 56.616C66.836 56.7653 66.78 56.9707 66.78 57.232V57.504ZM73.4298 58.44C73.4298 58.3973 73.4458 58.3653 73.4778 58.344C73.5098 58.3227 73.5471 58.312 73.5898 58.312H74.5018V53.144C74.5018 53.1013 74.5151 53.0667 74.5418 53.04C74.5738 53.008 74.6111 52.992 74.6538 52.992H75.0458C75.0884 52.992 75.1231 53.008 75.1497 53.04C75.1764 53.0667 75.1898 53.1013 75.1898 53.144V55.784C75.3284 55.6827 75.4831 55.6027 75.6538 55.544C75.8244 55.48 75.9898 55.432 76.1498 55.4C76.3151 55.368 76.4698 55.3467 76.6138 55.336C76.7578 55.3253 76.8751 55.32 76.9658 55.32C77.3071 55.32 77.6084 55.3573 77.8698 55.432C78.1364 55.5013 78.3604 55.6187 78.5418 55.784C78.7231 55.944 78.8618 56.1547 78.9578 56.416C79.0538 56.6773 79.1018 56.9973 79.1018 57.376V57.504C79.1018 57.5627 79.0991 57.632 79.0938 57.712C79.0938 57.7867 79.0911 57.8613 79.0858 57.936C79.0858 58.0107 79.0804 58.0827 79.0698 58.152C79.0591 58.216 79.0458 58.2693 79.0298 58.312H79.6778V59H73.5898C73.5471 59 73.5098 58.9893 73.4778 58.968C73.4458 58.9413 73.4298 58.9067 73.4298 58.864V58.44ZM78.2138 58.32C78.2884 58.32 78.3418 58.2773 78.3738 58.192C78.4111 58.1013 78.4298 57.9147 78.4298 57.632V57.512C78.4298 57.2133 78.3951 56.9653 78.3258 56.768C78.2618 56.5707 78.1631 56.416 78.0298 56.304C77.9018 56.1867 77.7391 56.104 77.5418 56.056C77.3444 56.008 77.1151 55.984 76.8538 55.984C76.7738 55.984 76.6618 55.9893 76.5178 56C76.3791 56.0107 76.2298 56.032 76.0698 56.064C75.9098 56.096 75.7498 56.1387 75.5898 56.192C75.4351 56.2453 75.3018 56.3147 75.1898 56.4V58.312C75.3231 58.3173 75.4564 58.32 75.5898 58.32C75.7284 58.32 75.9098 58.32 76.1338 58.32H78.2138ZM81.5997 53.8C81.5997 53.7467 81.6184 53.704 81.6557 53.672C81.693 53.64 81.7357 53.624 81.7837 53.624H82.1357C82.1837 53.624 82.2237 53.64 82.2557 53.672C82.293 53.704 82.3117 53.7467 82.3117 53.8V54.232C82.3117 54.28 82.293 54.32 82.2557 54.352C82.2237 54.384 82.181 54.4 82.1277 54.4H81.7837C81.7304 54.4 81.685 54.384 81.6477 54.352C81.6157 54.32 81.5997 54.28 81.5997 54.232V53.8ZM79.3597 58.416C79.3597 58.384 79.3864 58.36 79.4397 58.344C79.493 58.3227 79.557 58.312 79.6317 58.312H80.9197L80.1677 56.392C80.157 56.376 80.149 56.3547 80.1437 56.328C80.1437 56.3013 80.1437 56.2773 80.1437 56.256L80.1517 56.024C80.157 55.9547 80.2024 55.8853 80.2877 55.816C80.3784 55.736 80.485 55.664 80.6077 55.6C80.7357 55.5307 80.8744 55.4747 81.0237 55.432C81.173 55.384 81.3277 55.3467 81.4877 55.32C81.6477 55.2933 81.8077 55.28 81.9677 55.28C82.229 55.28 82.469 55.3093 82.6877 55.368C82.9117 55.4267 83.1037 55.52 83.2637 55.648C83.4237 55.7707 83.5464 55.9307 83.6317 56.128C83.7224 56.3253 83.7677 56.56 83.7677 56.832V56.984C83.7677 57.112 83.7544 57.2427 83.7277 57.376C83.701 57.5093 83.6637 57.6373 83.6157 57.76C83.5677 57.8773 83.509 57.9867 83.4397 58.088C83.3757 58.184 83.3037 58.2587 83.2237 58.312H84.2317V59H79.6317C79.557 59 79.493 58.992 79.4397 58.976C79.3864 58.9547 79.3597 58.9253 79.3597 58.888V58.416ZM82.2157 58.32C82.493 58.256 82.709 58.1013 82.8637 57.856C83.0237 57.6107 83.1037 57.3253 83.1037 57V56.912C83.1037 56.56 83.0024 56.3067 82.7997 56.152C82.597 55.992 82.3197 55.912 81.9677 55.912C81.829 55.912 81.6504 55.9307 81.4317 55.968C81.213 56.0053 81.005 56.0907 80.8077 56.224L81.6237 58.32H82.2157ZM87.0264 53.8C87.0264 53.7467 87.045 53.704 87.0824 53.672C87.1197 53.64 87.1624 53.624 87.2104 53.624H87.5624C87.6104 53.624 87.6504 53.64 87.6824 53.672C87.7197 53.704 87.7384 53.7467 87.7384 53.8V54.232C87.7384 54.28 87.7197 54.32 87.6824 54.352C87.6504 54.384 87.6077 54.4 87.5544 54.4H87.2104C87.157 54.4 87.1117 54.384 87.0744 54.352C87.0424 54.32 87.0264 54.28 87.0264 54.232V53.8ZM83.9144 58.416C83.9144 58.384 83.941 58.36 83.9944 58.344C84.0477 58.3227 84.1117 58.312 84.1864 58.312H85.0984V55.496C85.0984 55.4533 85.1117 55.416 85.1384 55.384C85.1704 55.352 85.2077 55.336 85.2504 55.336H85.6184C85.661 55.336 85.6957 55.352 85.7224 55.384C85.7544 55.416 85.7704 55.4533 85.7704 55.496V55.816C85.909 55.7093 86.0637 55.624 86.2344 55.56C86.405 55.4907 86.573 55.44 86.7384 55.408C86.9037 55.3707 87.0584 55.3467 87.2024 55.336C87.3464 55.3253 87.4637 55.32 87.5544 55.32C87.8957 55.32 88.197 55.3573 88.4584 55.432C88.725 55.5067 88.949 55.6267 89.1304 55.792C89.3117 55.9573 89.4477 56.1707 89.5384 56.432C89.6344 56.6933 89.6824 57.0107 89.6824 57.384V57.544C89.6824 57.6293 89.6797 57.7253 89.6744 57.832C89.6744 57.9387 89.6717 58.0453 89.6664 58.152C89.661 58.2587 89.6504 58.3627 89.6344 58.464C89.6237 58.5653 89.6077 58.6507 89.5864 58.72C89.5704 58.7733 89.541 58.8267 89.4984 58.88C89.461 58.928 89.3944 58.9573 89.2984 58.968C89.2237 58.9787 89.1037 58.9867 88.9384 58.992C88.7784 58.992 88.6024 58.9947 88.4104 59C88.2237 59 88.0397 59 87.8584 59C87.6824 59 87.5384 59 87.4264 59H84.1864C84.1117 59 84.0477 58.992 83.9944 58.976C83.941 58.9547 83.9144 58.9253 83.9144 58.888V58.416ZM85.7704 58.304C85.9037 58.3147 86.0397 58.32 86.1784 58.32C86.3224 58.32 86.5064 58.32 86.7304 58.32H88.7944C88.8317 58.32 88.8637 58.312 88.8904 58.296C88.9224 58.28 88.9464 58.248 88.9624 58.2C88.9784 58.1467 88.989 58.0747 88.9944 57.984C89.005 57.8933 89.0104 57.776 89.0104 57.632V57.488C89.0104 57.1947 88.9757 56.952 88.9064 56.76C88.8424 56.568 88.7437 56.416 88.6104 56.304C88.477 56.1867 88.309 56.104 88.1064 56.056C87.9037 56.008 87.6664 55.984 87.3944 55.984C87.3144 55.984 87.205 55.992 87.0664 56.008C86.933 56.0187 86.789 56.04 86.6344 56.072C86.4797 56.104 86.325 56.1493 86.1704 56.208C86.0157 56.2613 85.8824 56.3333 85.7704 56.424V58.304ZM90.9309 53.144C90.9309 53.1013 90.9443 53.064 90.9709 53.032C91.0029 53 91.0403 52.984 91.0829 52.984H91.4749C91.5176 52.984 91.5523 53 91.5789 53.032C91.6056 53.064 91.6189 53.1013 91.6189 53.144V58.84C91.6189 58.8827 91.6056 58.92 91.5789 58.952C91.5523 58.984 91.5176 59 91.4749 59H91.0829C91.0403 59 91.0029 58.984 90.9709 58.952C90.9443 58.92 90.9309 58.8827 90.9309 58.84V53.144ZM90.6669 60.944C90.5709 60.944 90.5229 60.912 90.5229 60.848V60.712C90.5229 60.6587 90.5709 60.632 90.6669 60.632H90.8029C90.7549 60.5733 90.7203 60.5013 90.6989 60.416C90.6776 60.336 90.6669 60.256 90.6669 60.176C90.6669 59.952 90.7309 59.7867 90.8589 59.68C90.9923 59.5787 91.1789 59.528 91.4189 59.528C91.4616 59.528 91.5096 59.5307 91.5629 59.536C91.6163 59.5413 91.6696 59.5493 91.7229 59.56C91.7816 59.5813 91.8109 59.6133 91.8109 59.656V59.768C91.8109 59.8267 91.7763 59.856 91.7069 59.856C91.6963 59.856 91.6589 59.8533 91.5949 59.848C91.5309 59.848 91.4856 59.848 91.4589 59.848C91.1763 59.848 91.0349 59.968 91.0349 60.208C91.0349 60.32 91.0536 60.4107 91.0909 60.48C91.1283 60.5547 91.1683 60.6027 91.2109 60.624H91.7469C91.8376 60.624 91.8829 60.656 91.8829 60.72V60.848C91.8829 60.8907 91.8696 60.9173 91.8429 60.928C91.8216 60.9387 91.7896 60.944 91.7469 60.944H90.6669Z" fill="#1C1C28"/>
</svg>
