<svg width="22" height="22" viewBox="0 0 22 22" fill="none" xmlns="http://www.w3.org/2000/svg">
<rect width="22" height="22" rx="0.370553" fill="#F4F4F4"/>
<path d="M10.5919 11.2199L8.57138 9.20002C8.31661 8.94535 8.31661 8.52381 8.57138 8.26913C8.82614 8.01446 9.24783 8.01446 9.50259 8.26913L11.5232 10.289L13.5437 8.26913C13.7985 8.01446 14.2202 8.01446 14.4749 8.26913C14.7297 8.52381 14.7297 8.94535 14.4749 9.20002L12.4544 11.2199L14.4749 13.2397C14.7297 13.4944 14.7297 13.916 14.4749 14.1706C14.3432 14.3024 14.1762 14.3638 14.0093 14.3638C13.8424 14.3638 13.6755 14.3024 13.5437 14.1706L11.5232 12.1508L9.50259 14.1706C9.37082 14.3024 9.2039 14.3638 9.03698 14.3638C8.87007 14.3638 8.70315 14.3024 8.57138 14.1706C8.31661 13.916 8.31661 13.4944 8.57138 13.2397L10.5919 11.2199Z" fill="#1C1C28"/>
</svg>
