<svg width="18" height="19" viewBox="0 0 18 19" fill="none" xmlns="http://www.w3.org/2000/svg">
<path d="M12 17.957H6C3.2625 17.957 1.6875 16.382 1.6875 13.6445V6.14453C1.6875 3.40703 3.2625 1.83203 6 1.83203H12C14.7375 1.83203 16.3125 3.40703 16.3125 6.14453V13.6445C16.3125 16.382 14.7375 17.957 12 17.957ZM6 2.95703C3.855 2.95703 2.8125 3.99953 2.8125 6.14453V13.6445C2.8125 15.7895 3.855 16.832 6 16.832H12C14.145 16.832 15.1875 15.7895 15.1875 13.6445V6.14453C15.1875 3.99953 14.145 2.95703 12 2.95703H6Z" fill="#83899F"/>
<path d="M13.875 7.83203H12.375C11.235 7.83203 10.3125 6.90953 10.3125 5.76953V4.26953C10.3125 3.96203 10.5675 3.70703 10.875 3.70703C11.1825 3.70703 11.4375 3.96203 11.4375 4.26953V5.76953C11.4375 6.28703 11.8575 6.70703 12.375 6.70703H13.875C14.1825 6.70703 14.4375 6.96203 14.4375 7.26953C14.4375 7.57703 14.1825 7.83203 13.875 7.83203Z" fill="#83899F"/>
<path d="M9 11.207H6C5.6925 11.207 5.4375 10.952 5.4375 10.6445C5.4375 10.337 5.6925 10.082 6 10.082H9C9.3075 10.082 9.5625 10.337 9.5625 10.6445C9.5625 10.952 9.3075 11.207 9 11.207Z" fill="#83899F"/>
<path d="M12 14.207H6C5.6925 14.207 5.4375 13.952 5.4375 13.6445C5.4375 13.337 5.6925 13.082 6 13.082H12C12.3075 13.082 12.5625 13.337 12.5625 13.6445C12.5625 13.952 12.3075 14.207 12 14.207Z" fill="#83899F"/>
</svg>
