<svg width="23" height="14" viewBox="0 0 23 14" fill="none" xmlns="http://www.w3.org/2000/svg">
<path d="M21.2958 0H2.60357C1.69418 0 0.957031 0.716468 0.957031 1.60034V4.66666H22.9423V1.60034C22.9423 0.716468 22.2052 0 21.2958 0Z" fill="#FF4B55"/>
<path d="M0.957031 12.4003C0.957031 13.2841 1.69418 14.0006 2.60357 14.0006H21.2958C22.2051 14.0006 22.9423 13.2842 22.9423 12.4003V9.33398H0.957031V12.4003Z" fill="#464655"/>
<path d="M0.957031 4.66602H22.9423V9.33243H0.957031V4.66602Z" fill="#F5F5F5"/>
<path d="M13.1604 6.27092C13.1604 6.08824 12.9762 5.9592 12.7979 6.017L12.4628 6.12555L12.3815 5.64798C12.3583 5.5104 12.2855 5.38534 12.1761 5.29522C12.0667 5.20511 11.9278 5.15584 11.7843 5.15625H11.4709L11.1431 5.5484H11.5772L11.4557 6.13152L11.1022 6.017C10.9239 5.9592 10.7397 6.08824 10.7397 6.27092V8.2523L11.2277 7.77806L10.9978 8.44837H10.7398V8.84051H13.1604V8.44837H12.9025L12.6726 7.77806L13.1605 8.2523V6.27092H13.1604ZM11.7484 8.44833H11.4232L11.6468 7.86783L11.7484 7.99391V8.44833ZM12.1518 8.44833V7.99391L12.2534 7.86783L12.477 8.44833H12.1518ZM11.9501 7.73762C11.9501 7.73762 11.326 7.32711 11.3513 6.56127C11.3513 6.56127 11.7358 6.5 11.9501 6.16912C12.1644 6.49996 12.549 6.56127 12.549 6.56127C12.5742 7.32715 11.9501 7.73762 11.9501 7.73762Z" fill="#F0C727"/>
</svg>
