<svg width="26" height="26" viewBox="0 0 26 26" fill="none" xmlns="http://www.w3.org/2000/svg">
<rect width="26" height="26" rx="4.5" fill="#0771DE"/>
<path d="M15.2501 21.0622C15.0476 21.0622 14.8601 20.9497 14.7626 20.7772C14.6651 20.5972 14.6651 20.3872 14.7701 20.2072L15.5576 18.8947C15.7151 18.6322 16.0601 18.5422 16.3301 18.6997C16.6001 18.8572 16.6826 19.2022 16.5251 19.4722L16.3226 19.8097C18.3926 19.3222 19.9451 17.4622 19.9451 15.2422C19.9451 14.9347 20.2001 14.6797 20.5076 14.6797C20.8151 14.6797 21.0701 14.9347 21.0701 15.2422C21.0626 18.4522 18.4526 21.0622 15.2501 21.0622Z" fill="white"/>
<path d="M5.5 11.3121C5.1925 11.3121 4.9375 11.0571 4.9375 10.7496C4.9375 7.54713 7.5475 4.93713 10.75 4.93713C10.9525 4.93713 11.14 5.04963 11.2375 5.22213C11.335 5.40213 11.335 5.61213 11.23 5.79213L10.4425 7.10463C10.285 7.36713 9.94 7.45713 9.67 7.29213C9.4075 7.13463 9.3175 6.78963 9.4825 6.51963L9.685 6.18213C7.6075 6.66963 6.0625 8.52963 6.0625 10.7496C6.0625 11.0571 5.8075 11.3121 5.5 11.3121Z" fill="white"/>
<path d="M16.3001 10.1571L13.4801 8.6346C13.1801 8.4771 12.8276 8.4771 12.5276 8.6346L9.70012 10.1571C9.49762 10.2696 9.37012 10.4871 9.37012 10.7271C9.37012 10.9746 9.49762 11.1921 9.70012 11.3046L12.5201 12.8271C12.6701 12.9096 12.8351 12.9471 13.0001 12.9471C13.1651 12.9471 13.3301 12.9096 13.4801 12.8271L16.3001 11.3046C16.5026 11.1921 16.6301 10.9746 16.6301 10.7271C16.6301 10.4871 16.5026 10.2696 16.3001 10.1571Z" fill="white"/>
<path d="M12.055 13.3521L9.43 12.0396C9.2275 11.9421 8.995 11.9496 8.8 12.0696C8.6125 12.1896 8.5 12.3921 8.5 12.6171V15.0996C8.5 15.5271 8.74 15.9171 9.1225 16.1046L11.7475 17.4171C11.8375 17.4621 11.935 17.4846 12.04 17.4846C12.16 17.4846 12.2725 17.4546 12.3775 17.3871C12.5725 17.2671 12.685 17.0646 12.685 16.8396V14.3571C12.6775 13.9296 12.445 13.5471 12.055 13.3521Z" fill="white"/>
<path d="M17.1924 12.0696C16.9974 11.9496 16.7649 11.9421 16.5624 12.0396L13.9374 13.3521C13.5549 13.5471 13.3149 13.9296 13.3149 14.3571V16.8396C13.3149 17.0646 13.4274 17.2671 13.6224 17.3871C13.7274 17.4546 13.8399 17.4846 13.9599 17.4846C14.0574 17.4846 14.1549 17.4621 14.2524 17.4171L16.8774 16.1046C17.2599 15.9096 17.4999 15.5271 17.4999 15.0996V12.6171C17.4999 12.3921 17.3874 12.1896 17.1924 12.0696Z" fill="white"/>
</svg>
