<svg width="15" height="14" viewBox="0 0 15 14" fill="none" xmlns="http://www.w3.org/2000/svg">
<path d="M7.93315 13.2709C4.47629 13.2709 1.6665 10.4592 1.6665 7.00008C1.6665 3.54091 4.47629 0.729248 7.93315 0.729248C11.39 0.729248 14.1998 3.54091 14.1998 7.00008C14.1998 10.4592 11.39 13.2709 7.93315 13.2709ZM7.93315 1.60425C4.96014 1.60425 2.54092 4.02508 2.54092 7.00008C2.54092 9.97508 4.96014 12.3959 7.93315 12.3959C10.9062 12.3959 13.3254 9.97508 13.3254 7.00008C13.3254 4.02508 10.9062 1.60425 7.93315 1.60425Z" fill="#292D32"/>
<path d="M7.9333 8.02079C7.69429 8.02079 7.49609 7.82246 7.49609 7.58329V4.66663C7.49609 4.42746 7.69429 4.22913 7.9333 4.22913C8.17231 4.22913 8.37051 4.42746 8.37051 4.66663V7.58329C8.37051 7.82246 8.17231 8.02079 7.9333 8.02079Z" fill="#292D32"/>
<path d="M7.93304 9.91668C7.85726 9.91668 7.78148 9.89918 7.71152 9.87001C7.64157 9.84085 7.57745 9.80001 7.51915 9.74751C7.46669 9.68918 7.42588 9.63085 7.39673 9.55501C7.36759 9.48501 7.3501 9.40918 7.3501 9.33335C7.3501 9.25751 7.36759 9.18168 7.39673 9.11168C7.42588 9.04168 7.46669 8.97751 7.51915 8.91918C7.57745 8.86668 7.64157 8.82585 7.71152 8.79668C7.85143 8.73835 8.01465 8.73835 8.15456 8.79668C8.22451 8.82585 8.28864 8.86668 8.34693 8.91918C8.3994 8.97751 8.4402 9.04168 8.46935 9.11168C8.4985 9.18168 8.51599 9.25751 8.51599 9.33335C8.51599 9.40918 8.4985 9.48501 8.46935 9.55501C8.4402 9.63085 8.3994 9.68918 8.34693 9.74751C8.28864 9.80001 8.22451 9.84085 8.15456 9.87001C8.08461 9.89918 8.00882 9.91668 7.93304 9.91668Z" fill="#292D32"/>
</svg>
